<svg width="41" height="18" viewBox="0 0 41 18" fill="none" xmlns="http://www.w3.org/2000/svg">
<path d="M0.585227 14H8.25568V12.5938H2.17045V0.909091H0.585227V14ZM14.4943 14.2045C17.1534 14.2045 18.9432 12.1847 18.9432 9.14205C18.9432 6.07386 17.1534 4.05398 14.4943 4.05398C11.8352 4.05398 10.0455 6.07386 10.0455 9.14205C10.0455 12.1847 11.8352 14.2045 14.4943 14.2045ZM14.4943 12.8494C12.4744 12.8494 11.554 11.1108 11.554 9.14205C11.554 7.1733 12.4744 5.40909 14.4943 5.40909C16.5142 5.40909 17.4347 7.1733 17.4347 9.14205C17.4347 11.1108 16.5142 12.8494 14.4943 12.8494ZM25.209 17.8864C27.5613 17.8864 29.4533 16.8125 29.4533 14.2812V4.18182H27.9959V5.74148H27.8425C27.5101 5.23011 26.8965 4.05398 24.9789 4.05398C22.4988 4.05398 20.7857 6.02273 20.7857 9.03977C20.7857 12.108 22.5755 13.8466 24.9533 13.8466C26.8709 13.8466 27.4846 12.7216 27.8169 12.1847H27.9448V14.179C27.9448 15.8153 26.7942 16.5568 25.209 16.5568C23.4256 16.5568 22.7992 15.6172 22.3965 15.0739L21.1948 15.9176C21.8084 16.9467 23.0165 17.8864 25.209 17.8864ZM25.1578 12.4915C23.2658 12.4915 22.2942 11.0597 22.2942 9.0142C22.2942 7.01989 23.2402 5.40909 25.1578 5.40909C26.9988 5.40909 27.9703 6.89205 27.9703 9.0142C27.9703 11.1875 26.9732 12.4915 25.1578 12.4915ZM36.2033 14.2045C38.8624 14.2045 40.6522 12.1847 40.6522 9.14205C40.6522 6.07386 38.8624 4.05398 36.2033 4.05398C33.5442 4.05398 31.7544 6.07386 31.7544 9.14205C31.7544 12.1847 33.5442 14.2045 36.2033 14.2045ZM36.2033 12.8494C34.1834 12.8494 33.263 11.1108 33.263 9.14205C33.263 7.1733 34.1834 5.40909 36.2033 5.40909C38.2232 5.40909 39.1436 7.1733 39.1436 9.14205C39.1436 11.1108 38.2232 12.8494 36.2033 12.8494Z" fill="black"/>
</svg>
